<svg width="235" height="236" viewBox="0 0 235 236" fill="none" xmlns="http://www.w3.org/2000/svg">
<path d="M117.5 0.5C182.115 0.5 234.5 53.1045 234.5 118C234.5 182.895 182.115 235.5 117.5 235.5C52.8847 235.5 0.5 182.895 0.5 118C0.5 53.1045 52.8847 0.5 117.5 0.5Z" fill="#594927" stroke="url(#paint0_linear_56_55)"/>
<path d="M118 12.5C175.709 12.5 222.5 59.7295 222.5 118C222.5 176.271 175.709 223.5 118 223.5C60.2907 223.5 13.5 176.271 13.5 118C13.5 59.7295 60.2907 12.5 118 12.5Z" stroke="black"/>
<path d="M118 12.5C175.709 12.5 222.5 59.7295 222.5 118C222.5 176.271 175.709 223.5 118 223.5C60.2907 223.5 13.5 176.271 13.5 118C13.5 59.7295 60.2907 12.5 118 12.5Z" fill="white" stroke="white"/>
<g filter="url(#filter0_d_56_55)">
<path d="M120.293 218.857L117.5 223.5H122.5L128 223H130L133 222.5L135.106 218.857L138.171 214.049L145.323 205.874L151.963 199.623L158.604 194.333L167.288 188.563L175.461 184.716L184.655 181.35L191.296 179.426L197.936 178.464L202.023 177.983H204L208 172L210 168.5L211.5 165.481L206.109 165L199.469 165.481L189.252 166.923L178.015 169.809L168.82 174.137L159.625 179.426L152.985 183.754L145.833 189.043L141.236 192.89L133.574 200.103L129.487 204.912L123.869 212.606L120.293 218.857Z" fill="#BF732B" stroke="#BF732B"/>
<path d="M113.303 219.354C113.303 219.354 114.545 221.415 115.5 223.5H109.5L105.5 223L101 222.5L99.1135 219.354L96.1777 214.501L89.3274 206.251L82.9665 199.942L76.6055 194.604L68.2873 188.78L60.4585 184.898L51.651 181.5L45.2901 179.559L38.9291 178.589L35.0147 178.103H32.4185L28.462 171.646L25 165H31.1002L37.4612 165.485L47.2473 166.941L58.012 169.853L66.8194 174.221L75.6269 179.559L81.9879 183.927L88.8381 189.265L93.2418 193.148L100.581 200.427L104.496 205.281L109.878 213.045L113.303 219.354Z" fill="#BF732B" stroke="#BF732B"/>
<path d="M118.248 53.3335C142.255 53.3335 162.219 73.6653 162.219 97.5562C162.219 121.44 142.756 140.806 118.742 140.806C94.7285 140.806 75.2659 121.44 75.2656 97.5562C75.2656 73.6505 94.2556 53.3335 118.248 53.3335Z" fill="white" stroke="#BF732B"/>
<path d="M118.878 47.5C146.152 47.5001 168.256 69.4417 168.256 96.5C168.256 123.558 146.152 145.5 118.878 145.5C91.6038 145.5 69.5 123.558 69.5 96.5C69.5 69.4417 91.6038 47.5 118.878 47.5Z" fill="#BF732B" stroke="#BF732B"/>
<path d="M118.5 55.5C141.149 55.5 159.5 73.6382 159.5 96C159.5 118.362 141.149 136.5 118.5 136.5C95.8506 136.5 77.5 118.362 77.5 96C77.5 73.6382 95.8506 55.5 118.5 55.5Z" fill="white" stroke="#BF732B"/>
<rect x="112.5" y="15.5" width="12" height="22" rx="6" fill="#B6702F" stroke="#BF732B"/>
<path d="M53.1453 42.5676C55.4194 40.5121 58.9455 40.614 61.0925 42.8004L74.7322 56.6916C75.3495 57.3204 75.341 58.3199 74.7127 58.938L74.7002 58.9503L74.6883 58.9634L72.3764 61.5857C72.2191 61.7642 72.0749 61.9542 71.9448 62.1528C70.5611 64.2646 67.565 64.6144 65.717 62.8801L53.4836 51.3983C50.9592 49.0287 50.8114 45.1147 53.1453 42.5676Z" fill="#B6702F" stroke="#BF732B"/>
<path d="M25.834 99.291L25.835 99.2812L26.168 95.9922C26.718 93.1814 29.1512 91.1321 32.0156 91.0693L55.2422 90.5605C56.481 90.5334 57.5 91.5305 57.5 92.7695L57.5 96C57.5 99.0376 55.0376 101.5 52 101.5L27.79 101.5C26.6074 101.5 25.6909 100.465 25.834 99.291Z" fill="#B6702F" stroke="#BF732B"/>
<path d="M46.3666 74.3339L46.3675 74.3342L46.3695 74.3287L47.4278 71.8395C48.3913 69.8539 50.6676 68.8762 52.772 69.5445L59.1078 71.5567C60.0124 71.844 60.4955 72.8273 60.17 73.719L59.265 76.1986C58.4313 78.482 55.9039 79.6572 53.6204 78.8237L47.3006 76.517C46.4181 76.1948 45.99 75.1946 46.3666 74.3339Z" fill="#B6702F" stroke="#BF732B"/>
<path d="M85.2583 34.2685L85.2588 34.2693L85.2639 34.2665L87.6876 33.0658C89.7115 32.1857 92.076 32.9252 93.2385 34.8024L96.7383 40.4542C97.238 41.2611 96.9645 42.3221 96.1371 42.7871L93.8359 44.0803C91.7166 45.2709 89.0331 44.5179 87.8422 42.3987L84.5463 36.5338C84.0861 35.7147 84.4122 34.6767 85.2583 34.2685Z" fill="#B6702F" stroke="#BF732B"/>
<path d="M150.988 33.1042L150.991 33.108L153.043 34.8786C154.64 36.3888 154.882 38.8469 153.607 40.6397L150.613 44.8509C150.065 45.6216 148.983 45.7773 148.24 45.193L146.164 43.5623C144.253 42.0605 143.92 39.2938 145.422 37.3822L148.611 33.3229C149.194 32.5812 150.28 32.4812 150.988 33.1042Z" fill="#B6702F" stroke="#BF732B"/>
<path d="M186.884 70.32L186.884 70.325L187.464 72.9721C187.837 75.1386 186.556 77.2506 184.461 77.9209L179.54 79.4954C178.639 79.7834 177.68 79.2593 177.435 78.3457L176.752 75.796C176.123 73.448 177.516 71.0347 179.864 70.4054L184.85 69.0693C185.761 68.8253 186.691 69.3967 186.884 70.32Z" fill="#B6702F" stroke="#BF732B"/>
<path d="M183.73 45.4784L183.743 45.4941L183.758 45.5084C184.929 46.7087 184.903 48.6117 183.699 49.7763L172.148 60.9454C169.436 63.5677 164.979 63.1728 162.778 60.1156C161.048 57.7111 161.316 54.4346 163.416 52.3396L175.15 40.6317C176.275 39.5094 178.103 39.4699 179.279 40.5409L181.714 43.0379L183.73 45.4784Z" fill="#B6702F" stroke="#BF732B"/>
<path d="M208.837 92.5078C209.149 95.717 206.627 98.4998 203.399 98.5L181.23 98.5C179.723 98.4998 178.5 97.2775 178.5 95.7695L178.5 92.5381C178.5 89.7632 180.76 87.5188 183.535 87.5381L203.01 87.6738C205.856 87.6936 208.292 89.7164 208.837 92.5078Z" fill="#B6702F" stroke="#BF732B"/>
<path d="M68.578 125.263L73.7803 126.771L74.7744 127.136C79.5888 128.899 84.1977 131.18 88.5202 133.937L93.7225 138.086L101.96 145.251L109.763 153.926L112.798 158.074C114.527 161.084 115.945 164.262 117.028 167.559L117.133 167.88L117.729 170.993C117.909 171.933 118 172.887 118 173.844V186.399C118 187.835 116.835 189 115.399 189H104.994L99.012 188.219C97.2224 187.986 95.4532 187.616 93.7199 187.114C91.9901 186.612 90.3009 185.979 88.6671 185.221L84.6185 183.343L78.5491 180.326L72.0462 176.931L66.4104 173.16L62.0751 169.766L57.7399 165.617L53.8382 160.714L53.5425 160.293C50.5688 156.06 48.0521 151.524 46.0347 146.76L44.3006 140.349L43.4335 135.069L43.4046 134.264C43.1836 128.11 48.1131 123 54.2717 123L61.2081 123.754L68.578 125.263Z" fill="#BF732B" stroke="#BF732B"/>
<path d="M53.8274 138.447L53.7353 137.73C53.3538 134.757 55.774 132.172 58.7656 132.357C59.0281 132.373 59.2888 132.411 59.545 132.47L62.3022 133.106C64.6026 133.638 66.85 134.377 69.0167 135.315L71.92 136.571C74.849 137.839 77.6764 139.33 80.3773 141.031L81.16 141.524L85.56 144.571L86.2228 145.013C89.5879 147.254 92.7522 149.783 95.68 152.571L99.4612 157.209C100.459 158.433 101.357 159.734 102.146 161.102C103.113 162.776 103.913 164.541 104.535 166.372L105.8 170.095L107.12 176.19C107.547 178.041 106.005 179.753 104.12 179.52L99.3708 178.933C98.9646 178.882 98.5646 178.791 98.1767 178.661L90.84 176.19L90.2463 175.947C85.0801 173.828 80.1231 171.231 75.44 168.19L68.4 162.476L64.2315 158.145C62.6139 156.465 61.1535 154.639 59.8686 152.693C58.811 151.09 57.8757 149.411 57.0705 147.668L55.64 144.571L54.76 141.905L53.9946 139.254C53.9183 138.99 53.8624 138.72 53.8274 138.447Z" fill="white" stroke="#BF732B"/>
<path d="M168.287 125.263L163.057 126.771L162.051 127.138C157.215 128.9 152.585 131.18 148.239 133.937L143.009 138.086L134.729 145.251L126.884 153.926L123.833 158.074C122.095 161.083 120.669 164.263 119.58 167.563L119.475 167.88L118.877 170.986C118.695 171.93 118.603 172.89 118.603 173.851V186.385C118.603 187.829 119.774 189 121.218 189H131.678L137.694 188.219C139.492 187.986 141.269 187.616 143.011 187.114C144.751 186.612 146.45 185.979 148.094 185.22L152.161 183.343L158.263 180.326L164.8 176.931L170.466 173.16L174.824 169.766L179.182 165.617L183.105 160.714L183.406 160.287C186.393 156.058 188.921 151.524 190.949 146.76L192.693 140.349L193.564 135.069L193.591 134.324C193.814 128.137 188.86 123 182.669 123L175.696 123.754L168.287 125.263Z" fill="#BF732B" stroke="#BF732B"/>
<path d="M182.568 136.9L182.659 136.193C183.037 133.248 180.64 130.687 177.677 130.871C177.417 130.887 177.159 130.924 176.905 130.983L174.174 131.613C171.895 132.139 169.669 132.87 167.523 133.799L164.648 135.043C161.746 136.299 158.946 137.775 156.27 139.458L155.495 139.946L151.137 142.963L150.48 143.401C147.147 145.619 144.013 148.123 141.113 150.883L137.368 155.475C136.38 156.686 135.491 157.975 134.709 159.328C133.751 160.986 132.958 162.733 132.342 164.546L131.089 168.232L129.782 174.266C129.359 176.098 130.886 177.793 132.752 177.563L137.458 176.981C137.86 176.931 138.256 176.841 138.64 176.712L145.907 174.266L146.496 174.025C151.613 171.927 156.522 169.357 161.161 166.346L168.134 160.689L172.263 156.401C173.865 154.737 175.312 152.931 176.584 151.003C177.632 149.417 178.558 147.754 179.356 146.028L180.773 142.963L181.644 140.323L182.403 137.699C182.478 137.438 182.533 137.17 182.568 136.9Z" fill="white" stroke="#BF732B"/>
</g>
<defs>
<filter id="filter0_d_56_55" x="23.3758" y="15" width="189.698" height="211.8" filterUnits="userSpaceOnUse" color-interpolation-filters="sRGB">
<feFlood flood-opacity="0" result="BackgroundImageFix"/>
<feColorMatrix in="SourceAlpha" type="matrix" values="0 0 0 0 0 0 0 0 0 0 0 0 0 0 0 0 0 0 127 0" result="hardAlpha"/>
<feOffset dy="2"/>
<feGaussianBlur stdDeviation="0.4"/>
<feComposite in2="hardAlpha" operator="out"/>
<feColorMatrix type="matrix" values="0 0 0 0 0 0 0 0 0 0 0 0 0 0 0 0 0 0 0.25 0"/>
<feBlend mode="normal" in2="BackgroundImageFix" result="effect1_dropShadow_56_55"/>
<feBlend mode="normal" in="SourceGraphic" in2="effect1_dropShadow_56_55" result="shape"/>
</filter>
<linearGradient id="paint0_linear_56_55" x1="117.5" y1="0" x2="117.5" y2="236" gradientUnits="userSpaceOnUse">
<stop offset="0.302885" stop-color="#867A62"/>
<stop offset="0.575033" stop-color="#B69651"/>
<stop offset="0.820683" stop-color="#BF9D55"/>
</linearGradient>
</defs>
</svg>
